<svg width="512" height="512" viewBox="0 0 512 512" fill="none" xmlns="http://www.w3.org/2000/svg"><defs><linearGradient id="ring" x1="72" y1="54" x2="446" y2="458" gradientUnits="userSpaceOnUse"><stop stop-color="#C7FF19"/><stop offset="0.35" stop-color="#1595FF"/><stop offset="0.67" stop-color="#FF7B1A"/><stop offset="1" stop-color="#FF3D8D"/></linearGradient><radialGradient id="bg" cx="0" cy="0" r="1" gradientUnits="userSpaceOnUse" gradientTransform="translate(156 104) rotate(51) scale(430)"><stop stop-color="#164B60"/><stop offset="0.48" stop-color="#0A2A39"/><stop offset="1" stop-color="#06151F"/></radialGradient></defs><rect x="24" y="24" width="464" height="464" rx="142" fill="url(#bg)" stroke="#FFFFFF" stroke-opacity=".12" stroke-width="4"/><circle cx="256" cy="256" r="158" stroke="url(#ring)" stroke-width="18"/><circle cx="256" cy="256" r="112" stroke="#F7FBFF" stroke-opacity=".18" stroke-width="4"/><path d="M256 58L287 196L256 226L225 196L256 58Z" fill="#C7FF19"/><path d="M454 256L316 287L286 256L316 225L454 256Z" fill="#1595FF"/><path d="M256 454L225 316L256 286L287 316L256 454Z" fill="#FF3D8D"/><path d="M58 256L196 225L226 256L196 287L58 256Z" fill="#FF7B1A"/><circle cx="256" cy="256" r="66" fill="#F7FBFF"/><path d="M184 294L229 225L258 263L287 218L338 294H184Z" fill="#071923"/></svg>